<?xml version="1.0" encoding="utf-8"?>
<!-- Generator: Adobe Illustrator 16.0.0, SVG Export Plug-In . SVG Version: 6.00 Build 0)  -->
<!DOCTYPE svg PUBLIC "-//W3C//DTD SVG 1.1//EN" "http://www.w3.org/Graphics/SVG/1.1/DTD/svg11.dtd">
<svg version="1.1" id="Layer_1" xmlns="http://www.w3.org/2000/svg" xmlns:xlink="http://www.w3.org/1999/xlink" x="0px" y="0px"
	 width="64px" height="64px" viewBox="0 0 64 64" enable-background="new 0 0 64 64" xml:space="preserve">
<g id="Rectangle_81">
	<g>
		<rect x="1" y="11" fill="#DAEEFB" width="38" height="26"/>
	</g>
</g>
<g id="Ellipse_93">
	<g>
		<rect x="43" y="29" fill="#C2CDDC" width="20" height="14"/>
	</g>
</g>
<g id="Ellipse_92">
	<g>
		<rect x="12" y="51" fill="#FFFFFF" width="36" height="12"/>
	</g>
</g>
<g id="Rectangle_82">
	<g>
		<rect x="43" y="13" fill="#FFFFFF" width="20" height="16"/>
	</g>
</g>
<g id="Ellipse_81">
	<g>
		<path fill="#7C8697" d="M53,33c-1.657,0-3,1.343-3,3s1.343,3,3,3s3-1.343,3-3S54.657,33,53,33z M43,1v12h20V1H43z"/>
	</g>
</g>
<g id="Rounded_Rectangle_92">
	<g>
		<path fill="#2B3139" d="M41,54h-2v2h2V54z M29,54h-2v2h2V54z M41,58h-2v2h2V58z M37,54h-2v2h2V54z M33,54h-2v2h2V54z
			 M5.766,18.704l2.938-2.938c0.405-0.406,0.405-1.063,0-1.47c-0.406-0.405-1.063-0.405-1.47,0l-2.938,2.938
			c-0.405,0.406-0.405,1.063,0,1.47C4.702,19.109,5.359,19.109,5.766,18.704z M45,54h-2v2h2V54z M19,42h-6c-0.553,0-1,0.447-1,1
			s0.447,1,1,1h14c0.552,0,1-0.447,1-1s-0.448-1-1-1h-6v-4h17c1.104,0,2-0.896,2-2V12c0-1.104-0.896-2-2-2H2c-1.104,0-2,0.896-2,2
			v24c0,1.104,0.896,2,2,2h17V42z M2,36V12h36v24H2z M45,58h-2v2h2V58z M21,58h-2v2h2V58z M53,40c2.209,0,4-1.791,4-4s-1.791-4-4-4
			s-4,1.791-4,4S50.791,40,53,40z M53,34c1.104,0,2,0.896,2,2s-0.896,2-2,2s-2-0.896-2-2S51.896,34,53,34z M59,20
			c0.552,0,1-0.448,1-1v-2c0-0.553-0.448-1-1-1c-0.553,0-1,0.447-1,1v2C58,19.552,58.447,20,59,20z M62,0H44c-1.104,0-2,0.896-2,2
			v40c0,1.104,0.896,2,2,2h18c1.104,0,2-0.896,2-2V2C64,0.896,63.104,0,62,0z M62,42H44V30h18V42z M62,28H44V14h18V28z M62,12H44V8
			h18V12z M62,6H44V2h18V6z M47,50H13c-1.104,0-2,0.896-2,2v10c0,1.104,0.896,2,2,2h34c1.104,0,2-0.896,2-2V52
			C49,50.896,48.104,50,47,50z M47,62H13V52h34V62z M59,26c0.552,0,1-0.448,1-1v-2c0-0.553-0.448-1-1-1c-0.553,0-1,0.447-1,1v2
			C58,25.552,58.447,26,59,26z M17,58h-2v2h2V58z M21,54h-2v2h2V54z M37,58H23v2h14V58z M25,54h-2v2h2V54z M17,54h-2v2h2V54z
			 M12.234,14.296l-7.938,7.938c-0.405,0.406-0.405,1.063,0,1.47c0.406,0.405,1.063,0.405,1.47,0l7.938-7.938
			c0.405-0.406,0.405-1.063,0-1.47C13.298,13.891,12.641,13.891,12.234,14.296z"/>
	</g>
</g>
</svg>
